<svg width="23" height="23" viewBox="0 0 23 23" fill="none" xmlns="http://www.w3.org/2000/svg">
<path d="M4.79167 19.1667C4.79167 19.675 4.9936 20.1625 5.35305 20.522C5.71249 20.8814 6.2 21.0834 6.70833 21.0834H16.2917C16.8 21.0834 17.2875 20.8814 17.647 20.522C18.0064 20.1625 18.2083 19.675 18.2083 19.1667V7.66669H20.125V5.75002H16.2917V3.83335C16.2917 3.32502 16.0897 2.83751 15.7303 2.47807C15.3708 2.11862 14.8833 1.91669 14.375 1.91669H8.625C8.11667 1.91669 7.62916 2.11862 7.26971 2.47807C6.91027 2.83751 6.70833 3.32502 6.70833 3.83335V5.75002H2.875V7.66669H4.79167V19.1667ZM8.625 3.83335H14.375V5.75002H8.625V3.83335ZM7.66667 7.66669H16.2917V19.1667H6.70833V7.66669H7.66667Z" fill="#FF0000"/>
<path d="M8.625 9.58331H10.5417V17.25H8.625V9.58331ZM12.4583 9.58331H14.375V17.25H12.4583V9.58331Z" fill="#FF0000"/>
</svg>
