<svg width="69" height="34" viewBox="0 0 69 34" fill="none" xmlns="http://www.w3.org/2000/svg">
<path fill-rule="evenodd" clip-rule="evenodd" d="M9.5 0C4.25329 0 0 4.25329 0 9.5C0 14.7467 4.2533 19 9.5 19H59.5C64.7467 19 69 14.7467 69 9.5C69 4.25329 64.7467 0 59.5 0H9.5ZM14 12C15.6569 12 17 10.6569 17 9C17 7.34315 15.6569 6 14 6C12.3431 6 11 7.34315 11 9C11 10.6569 12.3431 12 14 12ZM37 9C37 10.6569 35.6569 12 34 12C32.3431 12 31 10.6569 31 9C31 7.34315 32.3431 6 34 6C35.6569 6 37 7.34315 37 9ZM54 12C55.6569 12 57 10.6569 57 9C57 7.34315 55.6569 6 54 6C52.3431 6 51 7.34315 51 9C51 10.6569 52.3431 12 54 12Z" fill="url(#paint0_linear)"/>
<path d="M24.484 23.472C25.62 23.472 26.456 23.744 26.992 24.288C27.536 24.832 27.808 25.676 27.808 26.82C27.808 27.98 27.536 28.836 26.992 29.388C26.456 29.932 25.62 30.204 24.484 30.204C23.132 30.204 22.22 29.772 21.748 28.908V32.64H19.732V23.676H21.748V24.744C22.212 23.896 23.124 23.472 24.484 23.472ZM23.848 28.632C24.544 28.632 25.04 28.492 25.336 28.212C25.64 27.932 25.792 27.472 25.792 26.832C25.792 26.184 25.644 25.728 25.348 25.464C25.06 25.192 24.568 25.056 23.872 25.056C22.416 25.056 21.688 25.572 21.688 26.604V27C21.688 27.512 21.876 27.912 22.252 28.2C22.628 28.488 23.16 28.632 23.848 28.632ZM30.0093 22.68C29.5613 22.68 29.2573 22.616 29.0973 22.488C28.9373 22.352 28.8573 22.096 28.8573 21.72C28.8573 21.336 28.9373 21.08 29.0973 20.952C29.2573 20.816 29.5613 20.748 30.0093 20.748C30.4813 20.748 30.7973 20.816 30.9573 20.952C31.1173 21.08 31.1973 21.336 31.1973 21.72C31.1973 22.096 31.1133 22.352 30.9453 22.488C30.7853 22.616 30.4733 22.68 30.0093 22.68ZM31.0293 30H29.0133V23.676H31.0293V30ZM37.2457 23.472C38.3817 23.472 39.2177 23.744 39.7537 24.288C40.2977 24.832 40.5697 25.676 40.5697 26.82C40.5697 27.98 40.2977 28.836 39.7537 29.388C39.2177 29.932 38.3817 30.204 37.2457 30.204C35.8937 30.204 34.9817 29.772 34.5097 28.908V32.64H32.4937V23.676H34.5097V24.744C34.9737 23.896 35.8857 23.472 37.2457 23.472ZM36.6097 28.632C37.3057 28.632 37.8017 28.492 38.0977 28.212C38.4017 27.932 38.5537 27.472 38.5537 26.832C38.5537 26.184 38.4057 25.728 38.1097 25.464C37.8217 25.192 37.3297 25.056 36.6337 25.056C35.1777 25.056 34.4497 25.572 34.4497 26.604V27C34.4497 27.512 34.6377 27.912 35.0137 28.2C35.3897 28.488 35.9217 28.632 36.6097 28.632ZM49.395 26.808V27.3H43.527C43.591 27.828 43.775 28.2 44.079 28.416C44.383 28.632 44.863 28.74 45.519 28.74C46.647 28.74 47.263 28.496 47.367 28.008H49.275C49.139 29.472 47.875 30.204 45.483 30.204C44.115 30.204 43.111 29.928 42.471 29.376C41.831 28.824 41.511 27.96 41.511 26.784C41.511 25.648 41.827 24.812 42.459 24.276C43.099 23.74 44.099 23.472 45.459 23.472C46.819 23.472 47.815 23.736 48.447 24.264C49.079 24.784 49.395 25.632 49.395 26.808ZM45.471 24.936C44.847 24.936 44.387 25.028 44.091 25.212C43.803 25.396 43.623 25.712 43.551 26.16H47.367C47.351 25.728 47.191 25.416 46.887 25.224C46.591 25.032 46.119 24.936 45.471 24.936Z" fill="url(#paint1_linear)"/>
<defs>
<linearGradient id="paint0_linear" x1="-4.97713e-07" y1="9" x2="69" y2="9" gradientUnits="userSpaceOnUse">
<stop stop-color="#0066FF"/>
<stop offset="0.489583" stop-color="#944DE1"/>
<stop offset="1" stop-color="#F43AAA"/>
</linearGradient>
<linearGradient id="paint1_linear" x1="34.5" y1="19" x2="34.5" y2="34" gradientUnits="userSpaceOnUse">
<stop stop-color="#0066FF"/>
<stop offset="0.5" stop-color="#944DE1"/>
<stop offset="1" stop-color="#F43AAA"/>
</linearGradient>
</defs>
</svg>
