<svg width="154" height="76" viewBox="0 0 154 76" fill="none" xmlns="http://www.w3.org/2000/svg">
<path fill-rule="evenodd" clip-rule="evenodd" d="M21.2029 0C9.49285 0 0 9.50735 0 21.2353C0 32.9632 9.49287 42.4706 21.2029 42.4706H132.797C144.507 42.4706 154 32.9632 154 21.2353C154 9.50735 144.507 0 132.797 0H21.2029ZM31.2464 26.8235C34.9444 26.8235 37.942 23.8213 37.942 20.1176C37.942 16.4141 34.9444 13.4118 31.2464 13.4118C27.5484 13.4118 24.5507 16.4141 24.5507 20.1176C24.5507 23.8213 27.5484 26.8235 31.2464 26.8235ZM82.5797 20.1176C82.5797 23.8213 79.5821 26.8235 75.8841 26.8235C72.1861 26.8235 69.1884 23.8213 69.1884 20.1176C69.1884 16.4141 72.1861 13.4118 75.8841 13.4118C79.5821 13.4118 82.5797 16.4141 82.5797 20.1176ZM120.522 26.8235C124.22 26.8235 127.217 23.8213 127.217 20.1176C127.217 16.4141 124.22 13.4118 120.522 13.4118C116.824 13.4118 113.826 16.4141 113.826 20.1176C113.826 23.8213 116.824 26.8235 120.522 26.8235Z" fill="url(#paint0_linear)"/>
<path d="M54.6454 52.4669C57.1809 52.4669 59.0467 53.0749 60.243 54.2909C61.4572 55.5069 62.0642 57.3935 62.0642 59.9506C62.0642 62.5436 61.4572 64.457 60.243 65.6909C59.0467 66.9069 57.1809 67.5149 54.6454 67.5149C51.6279 67.5149 49.5925 66.5492 48.539 64.6179V72.96H44.0395V52.9229H48.539V55.3102C49.5746 53.4146 51.6101 52.4669 54.6454 52.4669ZM53.226 64.001C54.7794 64.001 55.8864 63.688 56.547 63.0622C57.2255 62.4363 57.5648 61.4081 57.5648 59.9775C57.5648 58.529 57.2344 57.5097 56.5738 56.9196C55.931 56.3116 54.8329 56.0076 53.2795 56.0076C50.0299 56.0076 48.4051 57.161 48.4051 59.4678V60.353C48.4051 61.4975 48.8247 62.3916 49.6639 63.0353C50.5031 63.6791 51.6904 64.001 53.226 64.001ZM66.9773 50.6965C65.9774 50.6965 65.2989 50.5535 64.9418 50.2673C64.5847 49.9633 64.4061 49.3911 64.4061 48.5506C64.4061 47.6923 64.5847 47.12 64.9418 46.8339C65.2989 46.5299 65.9774 46.3779 66.9773 46.3779C68.0307 46.3779 68.736 46.5299 69.0931 46.8339C69.4502 47.12 69.6288 47.6923 69.6288 48.5506C69.6288 49.3911 69.4413 49.9633 69.0663 50.2673C68.7092 50.5535 68.0129 50.6965 66.9773 50.6965ZM69.2538 67.0589H64.7543V52.9229H69.2538V67.0589ZM83.1281 52.4669C85.6635 52.4669 87.5294 53.0749 88.7256 54.2909C89.9398 55.5069 90.5469 57.3935 90.5469 59.9506C90.5469 62.5436 89.9398 64.457 88.7256 65.6909C87.5294 66.9069 85.6635 67.5149 83.1281 67.5149C80.1106 67.5149 78.0751 66.5492 77.0216 64.6179V72.96H72.5222V52.9229H77.0216V55.3102C78.0572 53.4146 80.0927 52.4669 83.1281 52.4669ZM81.7086 64.001C83.262 64.001 84.369 63.688 85.0296 63.0622C85.7081 62.4363 86.0474 61.4081 86.0474 59.9775C86.0474 58.529 85.7171 57.5097 85.0564 56.9196C84.4136 56.3116 83.3156 56.0076 81.7622 56.0076C78.5126 56.0076 76.8877 57.161 76.8877 59.4678V60.353C76.8877 61.4975 77.3073 62.3916 78.1465 63.0353C78.9857 63.6791 80.1731 64.001 81.7086 64.001ZM110.244 59.9238V61.0236H97.1472C97.2901 62.2038 97.7007 63.0353 98.3792 63.5182C99.0577 64.001 100.129 64.2424 101.593 64.2424C104.111 64.2424 105.486 63.697 105.718 62.6062H109.976C109.673 65.8786 106.851 67.5149 101.513 67.5149C98.4596 67.5149 96.2188 66.8979 94.7903 65.664C93.3619 64.4302 92.6477 62.4989 92.6477 59.8702C92.6477 57.3309 93.353 55.4622 94.7636 54.264C96.192 53.0659 98.4239 52.4669 101.459 52.4669C104.495 52.4669 106.718 53.057 108.128 54.2372C109.539 55.3996 110.244 57.2951 110.244 59.9238ZM101.486 55.7393C100.093 55.7393 99.0666 55.945 98.406 56.3563C97.7632 56.7676 97.3615 57.4739 97.2008 58.4753H105.718C105.682 57.5097 105.325 56.8123 104.646 56.3831C103.986 55.9539 102.932 55.7393 101.486 55.7393Z" fill="url(#paint1_linear)"/>
<defs>
<linearGradient id="paint0_linear" x1="-1.11084e-06" y1="20.1176" x2="154" y2="20.1176" gradientUnits="userSpaceOnUse">
<stop stop-color="#0066FF"/>
<stop offset="0.489583" stop-color="#944DE1"/>
<stop offset="1" stop-color="#F43AAA"/>
</linearGradient>
<linearGradient id="paint1_linear" x1="77" y1="42.4706" x2="77" y2="76" gradientUnits="userSpaceOnUse">
<stop stop-color="#0066FF"/>
<stop offset="0.5" stop-color="#944DE1"/>
<stop offset="1" stop-color="#F43AAA"/>
</linearGradient>
</defs>
</svg>
