<svg width="228" height="92" viewBox="0 0 228 92" fill="none" xmlns="http://www.w3.org/2000/svg">
<path d="M36.5255 21.0737C45.2572 21.0737 51.683 23.1779 55.8029 27.3865C59.9842 31.595 62.0749 38.1245 62.0749 46.9748C62.0749 55.9489 59.9842 62.5712 55.8029 66.8416C51.683 71.0501 45.2572 73.1544 36.5255 73.1544C26.1336 73.1544 19.1236 69.8123 15.4957 63.1282V92H0V22.6519H15.4957V30.9142C19.0621 24.3539 26.0721 21.0737 36.5255 21.0737ZM31.637 60.9929C36.9867 60.9929 40.7991 59.9099 43.0743 57.7437C45.4109 55.5775 46.5792 52.0188 46.5792 47.0676C46.5792 42.0545 45.4417 38.5268 43.1665 36.4844C40.9528 34.3801 37.1712 33.328 31.8215 33.328C20.6301 33.328 15.0345 37.3199 15.0345 45.3037V48.3673C15.0345 52.3283 16.4795 55.4228 19.3696 57.6509C22.2597 59.8789 26.3488 60.9929 31.637 60.9929ZM78.9949 14.9465C75.5514 14.9465 73.2147 14.4514 71.9849 13.4612C70.7551 12.409 70.1402 10.4285 70.1402 7.51968C70.1402 4.54894 70.7551 2.56845 71.9849 1.57821C73.2147 0.526072 75.5514 0 78.9949 0C82.6228 0 85.0517 0.526072 86.2815 1.57821C87.5113 2.56845 88.1262 4.54894 88.1262 7.51968C88.1262 10.4285 87.4806 12.409 86.1893 13.4612C84.9594 14.4514 82.5613 14.9465 78.9949 14.9465ZM86.8349 71.5762H71.3393V22.6519H86.8349V71.5762ZM134.616 21.0737C143.348 21.0737 149.774 23.1779 153.894 27.3865C158.075 31.595 160.166 38.1245 160.166 46.9748C160.166 55.9489 158.075 62.5712 153.894 66.8416C149.774 71.0501 143.348 73.1544 134.616 73.1544C124.224 73.1544 117.214 69.8123 113.586 63.1282V92H98.0908V22.6519H113.586V30.9142C117.153 24.3539 124.163 21.0737 134.616 21.0737ZM129.728 60.9929C135.077 60.9929 138.89 59.9099 141.165 57.7437C143.502 55.5775 144.67 52.0188 144.67 47.0676C144.67 42.0545 143.532 38.5268 141.257 36.4844C139.044 34.3801 135.262 33.328 129.912 33.328C118.721 33.328 113.125 37.3199 113.125 45.3037V48.3673C113.125 52.3283 114.57 55.4228 117.46 57.6509C120.35 59.8789 124.44 60.9929 129.728 60.9929ZM228 46.8819V50.6882H182.897C183.388 54.773 184.803 57.6509 187.139 59.3219C189.476 60.9929 193.165 61.8285 198.208 61.8285C206.878 61.8285 211.613 59.9408 212.412 56.1655H227.078C226.032 67.4914 216.317 73.1544 197.931 73.1544C187.416 73.1544 179.699 71.0192 174.78 66.7487C169.861 62.4783 167.401 55.7942 167.401 46.6963C167.401 37.9078 169.83 31.4403 174.688 27.2936C179.607 23.147 187.293 21.0737 197.747 21.0737C208.2 21.0737 215.856 23.1161 220.713 27.2008C225.571 31.2237 228 37.7841 228 46.8819ZM197.839 32.3996C193.043 32.3996 189.507 33.1113 187.232 34.5348C185.018 35.9583 183.634 38.403 183.081 41.8688H212.412C212.289 38.5267 211.059 36.113 208.723 34.6277C206.447 33.1423 202.82 32.3996 197.839 32.3996Z" fill="url(#paint0_linear)"/>
<defs>
<linearGradient id="paint0_linear" x1="113.512" y1="-13.523" x2="113.512" y2="102.521" gradientUnits="userSpaceOnUse">
<stop stop-color="#0066FF"/>
<stop offset="0.5" stop-color="#944DE1"/>
<stop offset="1" stop-color="#F43AAA"/>
</linearGradient>
</defs>
</svg>
