<svg width="28" height="28" viewBox="0 0 28 28" fill="none" xmlns="http://www.w3.org/2000/svg">
<path fill-rule="evenodd" clip-rule="evenodd" d="M10.08 1C10.08 0.447715 10.5277 0 11.08 0H17.48C18.0323 0 18.48 0.447715 18.48 1V3.46768L20.1206 1.82708C20.5111 1.43656 21.1443 1.43656 21.5348 1.82708L26.0603 6.35256C26.4508 6.74308 26.4508 7.37625 26.0603 7.76677L24.3071 9.52H27C27.5523 9.52 28 9.96771 28 10.52V16.92C28 17.4723 27.5523 17.92 27 17.92H23.8598L26.0604 20.1206C26.4509 20.5111 26.4509 21.1443 26.0604 21.5348L21.5349 26.0603C21.1444 26.4508 20.5112 26.4508 20.1207 26.0603L18.48 24.4196V26.44C18.48 26.9923 18.0323 27.44 17.48 27.44H11.08C10.5277 27.44 10.08 26.9923 10.08 26.44V24.3071L7.76682 26.6203C7.3763 27.0108 6.74313 27.0108 6.35261 26.6203L1.82713 22.0948C1.4366 21.7043 1.4366 21.0711 1.82713 20.6806L4.02769 18.48H1C0.447715 18.48 0 18.0323 0 17.48V11.08C0 10.5277 0.447715 10.08 1 10.08H3.5803L1.26711 7.76682C0.876584 7.3763 0.876585 6.74314 1.26711 6.35261L5.79259 1.82713C6.18311 1.43661 6.81628 1.43661 7.2068 1.82713L9.70018 4.32051C9.82541 4.26136 9.95204 4.20472 10.08 4.15065V1Z" fill="#0D0E0F"/>
<circle cx="13.72" cy="13.72" r="8.232" fill="white"/>
</svg>
